<svg xmlns="http://www.w3.org/2000/svg" viewBox="0 0 512 512">
  <defs>
    <radialGradient id="bg" cx="50%" cy="35%" r="80%">
      <stop offset="0%" stop-color="#40335e"/>
      <stop offset="100%" stop-color="#1d1730"/>
    </radialGradient>
  </defs>
  <rect width="512" height="512" fill="url(#bg)"/>
  <g fill="none" stroke="#c9a86a" stroke-width="14" stroke-linecap="round" transform="translate(256 256) scale(.8) translate(-256 -256)">
    <path d="M256 330 C 200 270, 210 190, 256 130 C 302 190, 312 270, 256 330 Z" fill="#c9a86a" fill-opacity=".25"/>
    <path d="M256 330 C 180 310, 130 250, 122 186 C 196 200, 244 254, 256 330 Z" fill="#c9a86a" fill-opacity=".18"/>
    <path d="M256 330 C 332 310, 382 250, 390 186 C 316 200, 268 254, 256 330 Z" fill="#c9a86a" fill-opacity=".18"/>
    <path d="M140 356 Q 256 416 372 356"/>
  </g>
  <circle cx="256" cy="224" r="18" fill="#e8d5ae"/>
</svg>
